<?xml version="1.0" encoding="utf-8"?>
<!-- Generator: Adobe Illustrator 22.1.0, SVG Export Plug-In . SVG Version: 6.00 Build 0)  -->
<svg version="1.1" id="Layer_1" xmlns="http://www.w3.org/2000/svg" xmlns:xlink="http://www.w3.org/1999/xlink" x="0px" y="0px"
	 viewBox="0 0 6752 1602" style="enable-background:new 0 0 6752 1602;" xml:space="preserve">
<style type="text/css">
	.st0{fill:none;stroke:#000000;stroke-width:10;stroke-linecap:round;stroke-linejoin:round;stroke-miterlimit:10;}
	.st1{fill:none;stroke:#FFF000;stroke-width:10;stroke-linecap:round;stroke-linejoin:round;stroke-miterlimit:10;}
</style>
<path id="_Pencil" d="M942.1,386.5c-120.9,0-218.4,73.1-281.4,73.1c-66,0-154.4-69.1-259.1-69.1C202.5,390.5,0.3,555.1,0.3,866
	c0,193,75.2,397.2,167.6,529.3c78.2,111.8,148.3,203.2,247.9,203.2c98.5,0,142.2-66,265.2-66c123.9,0,152.4,64,261.1,64
	s180.8-99.6,248.9-197.1c75.2-111.8,107.7-221.5,108.7-226.6c-6.1-2-213.3-86.4-213.3-323.1c0-205.2,162.6-297.7,171.7-304.8
	C1151.4,390.5,987.8,386.5,942.1,386.5z M886.2,255.4c48.8-58.9,83.3-141.2,83.3-223.5c0.1-10.6-0.9-21.1-3-31.5
	c-79.2,3-176.8,53.8-234.7,121.9c-44.7,51.8-87.4,133.1-87.4,216.4c0,9.6,1.1,19.1,3,28.4c7,1.3,14.2,2,21.3,2
	C741,369.2,832.4,320.4,886.2,255.4z M1540.8,114.2v1466h262.1v-484.6h296.7c296.7,0,504.9-198.1,504.9-490.7
	s-202.2-490.7-493.8-490.7L1540.8,114.2L1540.8,114.2z M1802.9,328.6h238.8c188,0,296.7,100.6,296.7,276.3
	c0,177.8-109.7,279.4-297.7,279.4h-237.7V328.6L1802.9,328.6z M3175,677c145.3,0,242.8,106.7,247.9,259.1H2920
	C2930.1,785.7,3032.8,677,3175,677z M3423.9,1258.2c-27.4,89.4-116.8,148.3-234.7,148.3c-165.6,0-271.3-115.8-271.3-288.5v-15.2
	h752.8v-82.3c0-327.1-191-539.5-496.8-539.5c-310.9,0-508,224.5-508,564.9c0,343.4,195.1,555.7,518.1,555.7
	c255,0,444-140.2,476.5-343.4L3423.9,1258.2L3423.9,1258.2z M3814.6,1580.2h253V956.4c0-154.4,92.4-259.1,237.7-259.1
	c144.3,0,215.4,85.3,215.4,237.7v645.1h253V884.3c0-248.9-135.1-401.3-372.9-401.3c-165.6,0-280.4,77.2-338.3,205.2h-5.1V503.3
	h-242.8L3814.6,1580.2L3814.6,1580.2z M5906,887.3C5888.8,660.8,5713,481,5428.5,481c-312.9,0-516.1,216.4-516.1,560.8
	c0,349.5,203.2,559.8,518.1,559.8c270.2,0,456.2-158.5,476.5-399.3h-238.8c-23.4,121.9-106.7,195.1-234.7,195.1
	c-160.5,0-264.1-130-264.1-355.6c0-221.5,102.6-355.6,262.1-355.6c135.1,0,215.4,86.4,235.7,201.2L5906,887.3L5906,887.3z
	 M6044.8,1580.2h253V503.3h-253V1580.2z M6169.7,340.8c78.2,0,139.2-62,139.2-137.2c0-76.2-61-137.2-139.2-137.2
	c-76.2,0-138.2,61-138.2,137.2C6031.6,278.8,6093.5,340.8,6169.7,340.8z M6498.5,1580.2h253v-1466h-253V1580.2z"/>
<g>
	<path class="st0" d="M1100,854l50-26c7,0,25-3,25-3c16,17,26,10,26,10c4-9-8-20-8-20c30-12,26-30,26-30c-4-6-26,16-26,16
		c26-23,18-36,18-36c-6-8-33,25.4-33,25.4c31-38.6,9-38.6,9-38.6c-10,1.9-28,32.1-28,32.1c19-25,5-32,5-32c-14-3-37,44-37,44l-90,33
		c0,0-28,60,98,48"/>
	<path class="st0" d="M1062,1040c0,0,172-96,192-130c0,0,126.7,62.7,202-20c0,0,110.7-121.3,0-244c0,0-120-118.7-229.3-18.7
		c0,0-53.3,49.3-49.5,131.6"/>
	<path class="st0" d="M1230.3,933.4L1132,1040c0,0,9,33-8,37c0,0-10-5-9-25l-15,25"/>
	<path class="st0" d="M1311.1,747.5c0,0-45.5-12.3-54.9-13.9"/>
	<polyline class="st0" points="1297.6,777.2 1254,761.2 1288.1,785.8 1252.4,771.6 1278.5,794.4 1246,776.6 	"/>
	<line class="st0" x1="1386.1" y1="794.4" x2="1420.1" y2="827.8"/>
	<polyline class="st0" points="1373.1,821.4 1394.5,844.6 1366.7,829.6 1385,851.4 1360.1,837.5 1376.7,856.5 	"/>
	<line class="st0" x1="1338.1" y1="790.6" x2="1320.7" y2="821.7"/>
	<path class="st0" d="M1317.1,856.6c0,0-35.4-4.3-47.8-18.8l-7.4,33"/>
	<g>
		<polyline class="st1" points="1445.7,730 1428.3,756.7 1455,768.6 		"/>
		<line class="st1" x1="1467.7" y1="719.3" x2="1467.7" y2="758.7"/>
		<polyline class="st1" points="1483,751.5 1491,730 1480.3,715.3 		"/>
	</g>
</g>
</svg>
